<?xml version="1.0" standalone="no"?>
<!DOCTYPE svg PUBLIC "-//W3C//DTD SVG 20010904//EN"
 "http://www.w3.org/TR/2001/REC-SVG-20010904/DTD/svg10.dtd">
<svg version="1.0" xmlns="http://www.w3.org/2000/svg"
 width="1400.000000pt" height="1354.000000pt" viewBox="0 0 1400.000000 1354.000000"
 preserveAspectRatio="xMidYMid meet">

<g transform="translate(0.000000,1354.000000) scale(0.100000,-0.100000)"
fill="#000000" stroke="none">
<path d="M6635 13244 c-752 -48 -1407 -195 -2080 -466 -597 -242 -1025 -488
-1528 -880 -285 -223 -413 -336 -647 -574 -488 -496 -844 -992 -1151 -1604
-669 -1332 -841 -2895 -479 -4340 221 -883 640 -1722 1214 -2430 315 -389 724
-783 1156 -1114 185 -142 510 -347 819 -516 695 -379 1547 -639 2401 -731 376
-40 907 -38 1340 7 1188 122 2280 555 3265 1297 455 342 877 770 1242 1258
617 827 1024 1813 1177 2854 74 499 85 1086 30 1585 -136 1248 -632 2401
-1456 3385 -323 386 -770 796 -1203 1102 -267 189 -686 430 -1011 581 -633
295 -1318 481 -2084 568 -139 15 -843 28 -1005 18z m83 -317 c107 -37 176 -82
262 -167 138 -138 202 -286 203 -475 2 -134 -11 -192 -70 -314 -77 -161 -227
-293 -402 -351 -183 -61 -402 -37 -569 62 -76 45 -191 160 -235 235 -63 109
-89 194 -94 319 -7 137 12 231 67 342 88 175 256 306 465 363 103 28 273 22
373 -14z m1524 -101 c241 -61 374 -128 436 -220 98 -147 74 -329 -58 -435 -30
-24 -56 -48 -58 -52 -2 -5 17 -35 43 -68 59 -75 85 -143 85 -224 0 -160 -88
-300 -229 -365 -75 -35 -203 -41 -337 -17 -86 15 -382 89 -389 97 -2 2 71 298
161 658 90 360 163 656 164 658 1 9 66 -3 182 -32z m-3538 -453 c291 -780 321
-857 340 -880 1 -1 74 24 161 57 141 51 161 56 172 43 18 -23 74 -184 71 -201
-2 -10 -101 -52 -282 -119 -154 -56 -281 -101 -283 -99 -5 4 -441 1158 -445
1176 -3 12 188 88 224 89 11 1 24 -20 42 -66z m5602 -420 c57 -31 104 -61 104
-67 0 -6 -29 -200 -65 -431 -36 -231 -82 -528 -102 -660 -20 -132 -39 -244
-44 -249 -4 -4 -57 20 -118 55 -85 48 -111 68 -111 84 0 11 7 73 17 138 9 64
14 119 12 122 -3 2 -101 58 -219 124 -166 92 -219 117 -232 110 -10 -5 -53
-39 -95 -75 -43 -36 -87 -70 -98 -75 -16 -8 -41 2 -128 52 -59 34 -107 65
-107 70 0 20 1046 859 1072 859 5 0 57 -26 114 -57z m-6716 -312 l55 -17 -3
-40 c-4 -49 -41 -192 -52 -199 -5 -3 -48 -1 -97 5 -208 23 -396 -76 -484 -255
-32 -65 -34 -76 -34 -170 0 -96 2 -104 37 -176 108 -219 356 -299 588 -191 70
33 155 113 187 177 31 60 45 175 21 175 -8 0 -76 -38 -151 -85 -75 -47 -140
-85 -144 -85 -12 1 -124 190 -118 200 3 4 98 66 212 136 115 71 235 145 267
166 l59 38 25 -22 c33 -31 77 -121 97 -199 25 -95 17 -260 -18 -359 -111 -313
-478 -512 -797 -431 -215 54 -372 179 -470 373 -90 181 -91 391 0 568 95 186
314 343 550 396 81 18 206 16 270 -5z m3938 -290 c525 -69 1008 -211 1447
-426 461 -226 832 -492 1206 -865 270 -269 403 -438 627 -792 183 -292 319
-579 427 -903 101 -301 161 -575 202 -915 22 -183 25 -730 5 -920 -108 -1020
-574 -1980 -1304 -2684 -208 -201 -288 -269 -475 -403 -587 -419 -1184 -679
-1831 -798 -348 -64 -841 -92 -1167 -66 -782 62 -1493 306 -2155 738 -703 459
-1295 1164 -1626 1936 -338 786 -437 1684 -278 2527 89 472 267 951 514 1380
165 285 302 472 556 754 380 421 802 740 1321 1000 522 262 981 384 1728 460
22 2 175 3 340 1 237 -2 334 -7 463 -24z m4070 -515 c110 -116 117 -92 -76
-263 -260 -229 -523 -467 -561 -506 l-33 -35 117 -126 c100 -108 115 -129 104
-142 -21 -25 -166 -144 -175 -143 -5 0 -32 28 -61 62 -29 34 -117 131 -197
216 -95 100 -143 158 -138 166 12 21 926 843 938 844 6 1 43 -32 82 -73z
m-9827 -3086 c125 -39 252 -145 316 -266 73 -137 106 -332 84 -499 -14 -108
-65 -263 -112 -341 -73 -122 -208 -224 -296 -224 -39 0 -37 -9 -63 270 -25
267 -33 319 -70 450 -48 170 -62 249 -63 355 -1 103 17 190 51 248 20 34 61
36 153 7z m10608 -6 c12 -15 28 -49 36 -77 38 -128 29 -253 -36 -507 -50 -195
-65 -285 -74 -430 -7 -128 -22 -272 -31 -295 -19 -49 -163 14 -253 111 -143
153 -225 436 -192 667 37 263 177 452 393 533 87 32 131 31 157 -2z m-10925
-30 c21 -8 21 -101 0 -259 -18 -136 -14 -277 11 -368 9 -31 42 -119 74 -195
71 -167 91 -244 91 -348 0 -61 -5 -86 -20 -111 -52 -86 -206 -38 -355 112
-237 238 -289 560 -140 874 96 201 245 331 339 295z m11185 -16 c47 -17 120
-79 167 -141 207 -273 217 -651 24 -925 -101 -144 -241 -237 -357 -237 -92 0
-98 9 -98 148 1 130 11 170 91 357 99 232 114 355 74 622 -24 163 -24 154 0
178 21 21 39 20 99 -2z m-1611 -3562 c45 -46 82 -88 82 -93 0 -6 -68 -75 -150
-153 -83 -79 -155 -151 -161 -162 -9 -16 0 -30 57 -88 37 -39 71 -70 76 -70 5
0 80 70 167 155 87 85 163 155 169 155 15 0 172 -158 172 -174 0 -6 -72 -81
-160 -165 l-160 -153 50 -57 c27 -31 79 -83 115 -115 l66 -58 158 156 c87 86
163 156 169 156 11 0 172 -168 172 -179 0 -7 -142 -148 -393 -390 l-118 -114
-440 439 c-242 241 -450 452 -461 467 l-21 29 74 75 c108 110 440 423 448 423
4 0 44 -38 89 -84z m-7803 -120 c200 -68 380 -229 461 -413 27 -59 58 -182 50
-191 -10 -9 -241 -50 -247 -44 -4 4 -12 29 -18 56 -17 69 -62 153 -112 210
-208 236 -580 199 -722 -72 -70 -133 -74 -263 -12 -389 60 -121 170 -205 312
-239 59 -14 82 -15 176 -4 63 8 112 9 116 4 10 -11 54 -234 47 -241 -14 -14
-209 -34 -282 -29 -326 24 -618 276 -675 583 -17 88 -6 225 24 311 62 179 204
345 358 421 125 61 173 71 319 68 104 -3 138 -8 205 -31z m6533 -973 c16 -27
44 -75 61 -107 37 -70 55 -51 -159 -166 -85 -46 -167 -91 -183 -100 l-27 -17
35 -69 c19 -38 43 -80 53 -93 l19 -23 44 22 c24 12 110 60 190 106 80 46 152
84 160 84 13 0 136 -207 128 -214 -2 -2 -74 -43 -159 -91 -85 -48 -174 -98
-197 -111 l-42 -24 74 -127 c41 -69 78 -130 83 -135 11 -11 66 15 254 123 75
44 142 79 147 79 14 0 133 -212 124 -221 -12 -10 -626 -350 -628 -347 -1 2
-138 244 -305 538 -166 294 -311 549 -321 566 l-18 30 307 171 c169 95 312
172 318 172 7 1 25 -20 42 -46z m-4923 -223 c113 -35 191 -84 285 -179 59 -59
97 -108 123 -158 192 -368 13 -827 -379 -969 -269 -98 -589 -6 -773 224 -99
123 -145 256 -145 422 0 188 56 328 185 464 106 112 221 177 373 212 85 19
241 12 331 -16z m3568 -407 c34 -109 46 -186 29 -197 -4 -2 -74 -18 -155 -35
-81 -17 -163 -37 -181 -45 l-34 -14 25 -99 c13 -54 26 -99 27 -101 2 -1 82 15
177 37 96 22 183 41 193 43 18 3 23 -11 47 -117 15 -66 26 -121 25 -122 -1 -1
-85 -22 -187 -46 -124 -30 -185 -49 -187 -58 -1 -8 25 -129 58 -269 33 -140
60 -262 60 -271 0 -13 -20 -22 -87 -37 -155 -36 -160 -36 -167 -15 -13 46
-296 1227 -296 1237 0 8 98 36 268 75 147 35 281 67 297 71 63 17 72 13 88
-37z m-1907 -113 c143 -11 285 -23 317 -26 l57 -6 0 -56 c0 -32 -3 -88 -7
-126 l-6 -69 -96 7 c-53 4 -142 9 -198 13 l-102 6 -5 -34 c-10 -68 -16 -179
-9 -179 16 0 388 -32 390 -33 2 -2 -18 -251 -21 -253 0 -1 -88 5 -195 13 -106
8 -195 12 -198 10 -2 -3 -18 -130 -35 -283 -16 -154 -31 -280 -33 -282 -2 -2
-57 0 -124 4 l-121 7 0 28 c0 15 9 135 20 266 11 131 31 387 45 568 32 424 35
445 50 445 7 0 129 -9 271 -20z"/>
<path d="M6410 12676 c-167 -36 -290 -167 -321 -341 -39 -227 109 -426 348
-466 256 -42 473 147 473 411 0 197 -148 368 -347 400 -70 12 -83 12 -153 -4z"/>
<path d="M8268 12534 c-16 -28 -59 -237 -51 -245 16 -16 127 -22 167 -9 46 15
76 60 76 113 0 52 -21 88 -67 114 -43 24 -118 40 -125 27z"/>
<path d="M8146 12029 c-21 -59 -77 -291 -72 -296 11 -11 140 -32 199 -33 102
0 142 39 142 140 0 46 -5 63 -28 93 -47 62 -228 134 -241 96z"/>
<path d="M10080 11603 c-64 -43 -290 -229 -290 -239 0 -11 203 -132 238 -141
23 -6 31 22 56 207 25 180 26 190 23 190 -1 0 -14 -7 -27 -17z"/>
<path d="M6666 10624 c-3 -9 -6 -26 -6 -38 0 -21 -8 -25 -82 -41 -59 -12 -91
-25 -110 -42 -18 -17 -45 -29 -80 -34 -29 -5 -64 -17 -78 -27 -14 -11 -41 -23
-60 -27 -19 -4 -47 -14 -62 -21 -15 -8 -36 -14 -46 -14 -10 0 -72 -25 -136
-55 -83 -39 -124 -53 -141 -49 -15 4 -95 -17 -227 -59 -277 -89 -431 -135
-508 -152 -36 -8 -103 -26 -149 -40 -47 -14 -107 -25 -135 -25 -52 0 -235 -32
-255 -44 -19 -12 -12 -36 11 -45 18 -6 8 -9 -41 -13 -56 -4 -67 -8 -92 -36
-16 -18 -29 -41 -29 -51 0 -25 59 -45 108 -37 130 21 125 21 113 -2 -14 -27
-56 -39 -76 -22 -13 11 -20 9 -43 -13 -32 -31 -47 -33 -68 -12 -9 8 -24 15
-33 15 -26 0 -46 -27 -33 -43 8 -9 -1 -26 -33 -64 -37 -46 -63 -98 -52 -109 2
-2 20 8 40 21 l36 25 -22 -44 c-23 -47 -37 -58 -37 -30 0 14 -3 14 -16 3 -35
-29 -59 -104 -29 -93 27 11 16 -16 -26 -60 -22 -25 -45 -62 -51 -83 -13 -49
-23 -60 -59 -68 -26 -6 -29 -11 -29 -43 0 -30 -9 -48 -45 -89 -42 -48 -43 -51
-23 -57 l22 -5 -24 -26 c-28 -29 -91 -49 -128 -40 -14 3 -70 -4 -125 -16
l-100 -23 -65 -75 c-171 -200 -261 -336 -246 -374 4 -11 18 -15 47 -14 38 2
42 -1 46 -23 1 -14 19 -42 38 -63 25 -28 34 -46 31 -67 -3 -33 20 -63 63 -80
26 -11 29 -16 24 -44 -3 -17 -9 -56 -14 -86 -5 -30 -19 -100 -31 -155 -17 -79
-21 -118 -16 -187 4 -69 1 -106 -15 -174 -11 -47 -19 -95 -17 -107 2 -13 11 9
22 51 10 40 20 71 22 69 2 -2 -1 -57 -7 -123 -6 -72 -7 -176 -2 -264 l8 -145
88 -3 87 -3 0 -79 c0 -43 -4 -82 -10 -85 -5 -3 -10 -11 -10 -16 0 -12 156 -1
183 13 11 6 17 21 17 44 0 35 1 35 33 29 43 -9 115 -80 127 -127 8 -29 17 -38
39 -43 16 -3 44 -18 62 -32 42 -32 168 -93 191 -93 12 0 18 10 20 33 3 28 7
32 33 35 38 3 44 -2 88 -66 34 -50 38 -65 51 -180 4 -39 2 -44 -25 -57 -16 -9
-29 -22 -29 -30 0 -9 -18 -35 -40 -58 -58 -63 -81 -185 -40 -207 25 -14 25
-24 -1 -60 -20 -26 -20 -32 -10 -78 9 -37 23 -60 59 -94 26 -24 72 -84 102
-132 30 -48 69 -108 87 -134 18 -26 49 -80 69 -120 39 -76 78 -115 164 -165
77 -45 181 -136 197 -174 13 -32 13 -61 -1 -252 -20 -281 -20 -297 -12 -357 6
-42 2 -68 -20 -139 -23 -75 -25 -92 -16 -119 7 -18 12 -74 12 -124 0 -92 9
-112 31 -71 9 18 13 19 24 8 14 -15 19 -43 17 -97 -2 -25 -8 -35 -29 -43 -50
-19 -56 -29 -31 -56 l22 -24 -28 -22 c-22 -18 -26 -27 -21 -49 4 -15 15 -34
26 -44 10 -9 19 -29 19 -44 0 -19 6 -29 20 -33 12 -3 20 -14 20 -27 0 -12 8
-34 18 -48 10 -15 24 -39 31 -53 14 -27 123 -115 176 -142 34 -17 147 -47 176
-47 30 0 23 14 -26 49 -27 20 -47 43 -51 59 -12 53 -16 62 -38 90 -38 46 -40
62 -6 62 17 0 30 4 30 9 0 19 32 41 59 41 30 0 57 22 47 39 -3 5 -31 23 -61
40 -77 44 -74 81 6 81 19 0 32 6 35 18 3 9 11 27 16 39 8 16 7 32 -6 64 -9 23
-14 44 -11 47 3 3 20 -1 38 -10 77 -37 127 -31 127 14 0 18 7 19 99 16 93 -3
101 -2 125 21 18 17 26 35 26 57 0 37 20 49 83 45 47 -2 101 23 127 59 11 16
40 40 65 54 28 17 52 41 65 66 11 21 33 47 50 57 26 15 30 23 31 63 1 25 4 56
8 70 14 51 101 88 259 110 50 8 92 20 106 31 30 24 81 113 91 159 4 19 14 44
21 55 10 14 14 53 14 135 0 109 2 118 27 155 15 22 39 65 54 95 15 30 40 72
57 93 37 45 56 118 56 212 0 90 -16 124 -69 142 -28 9 -60 35 -105 84 -64 70
-66 70 -130 79 -110 13 -148 27 -165 60 -11 21 -38 41 -99 70 l-84 41 -22 62
c-29 78 -48 107 -138 202 -48 50 -104 95 -162 131 -84 51 -93 54 -154 54 -87
0 -108 10 -189 86 -86 81 -107 92 -138 70 -55 -38 -112 -9 -124 62 -9 57 -24
66 -93 57 -31 -4 -73 -8 -92 -8 -65 1 -171 21 -189 37 -9 8 -32 22 -51 31 -19
8 -43 21 -53 28 -15 10 -20 9 -31 -5 -18 -25 -33 -22 -52 7 -20 30 -46 32 -90
5 -18 -12 -63 -27 -99 -35 -37 -7 -68 -15 -68 -17 -26 -53 -47 -83 -69 -96
-25 -15 -30 -14 -80 11 -62 31 -79 33 -139 12 -24 -9 -54 -13 -66 -10 -33 8
-94 65 -110 102 -14 34 -14 31 27 141 10 26 10 35 -1 49 -26 30 -76 43 -174
43 -52 0 -95 3 -95 6 0 4 20 51 45 105 25 54 46 109 48 121 2 20 -3 23 -39 26
-58 4 -88 -11 -120 -60 -19 -28 -46 -51 -78 -67 l-49 -25 -23 30 c-44 54 -44
120 0 260 30 94 59 141 103 167 27 15 38 16 70 8 68 -19 108 -14 121 14 9 19
19 25 42 25 29 0 30 -2 30 -44 0 -53 6 -56 101 -56 66 0 69 1 69 24 0 13 6 29
14 36 12 9 16 5 21 -27 3 -21 13 -53 21 -71 8 -18 14 -46 14 -62 0 -25 4 -30
25 -30 14 0 37 11 50 25 30 29 34 95 10 152 -22 53 -19 86 13 115 44 41 140
102 240 152 l92 46 0 43 c0 37 8 52 69 129 81 99 111 123 195 154 l61 22 0 42
c1 50 20 69 130 127 39 20 83 47 98 60 16 12 38 23 49 23 20 0 20 -1 5 -18
-45 -50 3 -57 60 -9 22 18 87 60 145 95 116 68 131 82 122 106 -10 26 -32 19
-56 -19 -13 -19 -36 -39 -52 -45 -37 -13 -36 -13 -30 5 5 11 -1 15 -22 14 -16
0 -38 -4 -49 -8 -18 -7 -17 -9 10 -19 l30 -10 -30 -1 c-17 -1 -36 4 -43 11
-15 15 -16 57 -2 92 9 24 7 26 -18 26 -32 0 -95 -28 -149 -64 -21 -14 -47 -26
-58 -26 -15 0 -10 7 20 27 22 14 56 41 76 58 47 42 135 72 161 56 20 -12 57
-14 83 -4 14 5 12 8 -11 18 -28 11 -27 12 62 44 57 20 112 49 150 77 60 46
103 69 112 60 3 -3 -18 -37 -46 -75 -49 -67 -87 -131 -78 -131 2 0 32 9 67 19
94 28 126 34 134 22 10 -17 24 -13 51 15 24 23 27 24 38 8 9 -12 20 -15 39
-10 31 7 37 41 9 50 -12 4 -17 16 -17 38 l0 33 -85 -4 -84 -3 27 36 c24 31 27
42 22 80 -7 43 -7 43 -63 58 -35 10 -80 14 -117 11 -59 -5 -61 -4 -120 42 -33
26 -80 56 -104 67 l-43 20 -62 -60 c-72 -71 -92 -82 -144 -82 -41 0 -52 11
-52 51 0 17 -8 19 -86 19 -47 0 -109 -6 -137 -14 -29 -8 -73 -17 -100 -21 -63
-8 -95 -38 -105 -95 -7 -45 -8 -45 -55 -50 -26 -3 -52 -11 -58 -17 -9 -9 -18
-8 -35 4 l-24 15 0 -96 0 -95 36 2 c52 3 54 -19 4 -34 l-42 -13 7 -44 c4 -25
9 -51 12 -58 3 -8 -5 -16 -21 -20 -19 -4 -33 0 -57 20 -17 14 -35 26 -41 26
-6 0 -8 13 -4 35 7 34 5 36 -31 51 -26 11 -52 14 -86 10 -43 -6 -54 -3 -96 23
-33 22 -68 34 -119 41 -78 11 -122 32 -122 59 0 25 35 76 72 105 107 83 158
115 194 125 23 6 58 25 79 41 60 48 78 35 25 -19 -29 -29 -30 -30 -11 -41 28
-14 76 -12 118 5 21 9 61 15 95 14 102 -3 99 25 -6 56 l-60 17 85 40 c46 21
105 42 132 45 50 6 57 0 36 -39 -24 -44 48 -62 131 -33 29 10 82 15 169 15
164 0 320 27 305 52 -9 14 15 28 49 28 20 0 30 7 37 24 5 13 14 27 19 31 20
12 12 35 -13 35 -44 0 -86 12 -86 25 0 19 23 24 83 18 46 -5 62 -2 90 16 33
20 112 100 105 105 -2 2 -59 -3 -128 -9 -69 -6 -126 -11 -128 -9 -2 1 2 11 9
23 7 11 10 23 6 28 -4 4 -78 2 -165 -5 -152 -11 -191 -9 -255 17 -22 9 -54 6
-160 -15 -130 -25 -169 -29 -277 -24 -43 2 -66 -3 -107 -24 -29 -14 -60 -26
-69 -26 -16 0 -16 2 1 20 18 20 17 20 -13 20 -17 0 -42 -4 -56 -10 -35 -13
-33 -6 7 18 27 17 58 20 217 26 277 9 372 27 378 73 2 15 13 23 36 27 23 4 41
17 57 41 13 19 40 43 60 55 20 11 62 45 93 75 35 35 75 63 108 76 29 11 89 46
133 78 44 31 102 70 128 87 27 16 76 46 110 67 66 39 90 46 81 23 -3 -8 -27
-22 -52 -31 -26 -8 -78 -37 -117 -63 -55 -37 -71 -53 -75 -77 -5 -26 -14 -33
-86 -61 -115 -45 -134 -59 -134 -102 l0 -35 119 5 c118 5 120 5 177 43 136 91
286 127 352 86 18 -12 42 -37 53 -56 23 -39 44 -43 90 -19 17 8 33 13 35 11 3
-2 -9 -10 -26 -17 -32 -13 -60 -45 -60 -67 0 -15 57 -17 93 -4 14 6 34 19 45
31 17 18 20 19 26 5 4 -11 -3 -19 -22 -26 -97 -37 -118 -59 -107 -115 7 -42
79 -103 173 -147 55 -26 71 -29 120 -24 31 3 87 1 123 -5 81 -14 103 -3 146
69 15 27 55 76 88 110 61 62 61 62 151 78 49 9 130 30 179 47 74 25 112 32
216 37 112 6 130 9 163 31 40 28 43 36 20 68 -23 33 -14 65 23 82 18 8 33 21
33 28 0 6 5 12 10 12 6 0 10 5 10 10 0 6 -8 10 -19 10 -12 0 -20 9 -23 25 -4
18 -1 25 10 25 12 0 13 8 7 43 -5 23 -9 58 -9 77 -1 33 1 35 56 55 72 26 75
30 43 51 -20 13 -54 19 -117 22 -72 4 -90 8 -98 23 -6 9 -8 24 -5 31 4 10 -18
23 -77 45 -46 17 -99 35 -118 40 -25 6 -36 15 -38 30 -4 29 -14 31 -109 25
-73 -4 -83 -7 -83 -23 0 -17 -9 -19 -85 -19 -47 0 -85 4 -85 9 0 5 -7 17 -16
25 -22 23 -169 23 -178 0z"/>
<path d="M7700 10302 c0 -5 7 -17 15 -28 8 -10 15 -22 15 -25 0 -3 -22 -16
-50 -29 -27 -13 -50 -24 -50 -25 0 -1 9 -20 20 -43 22 -45 40 -55 40 -21 0 13
4 18 12 13 6 -4 36 -8 65 -9 54 -1 54 -1 48 26 -7 33 9 41 70 33 l44 -7 7 37
c3 20 4 39 1 42 -6 7 -194 44 -219 44 -10 0 -18 -4 -18 -8z"/>
<path d="M8510 10219 c0 -26 42 -69 75 -75 28 -5 35 -11 35 -30 0 -16 10 -29
33 -40 17 -10 48 -29 67 -44 32 -25 136 -70 161 -70 6 0 8 8 5 17 -4 9 -2 20
5 23 24 15 -65 136 -122 165 -63 33 -259 74 -259 54z"/>
<path d="M8945 9810 c28 -29 52 -45 54 -39 4 14 -72 89 -91 89 -7 0 10 -23 37
-50z"/>
<path d="M9000 9815 c0 -4 14 -33 30 -64 33 -61 119 -144 192 -186 49 -28 56
-29 95 -14 22 8 24 12 13 19 -8 6 -30 10 -48 10 -69 0 -138 53 -232 176 -27
37 -50 64 -50 59z"/>
<path d="M7515 9771 c-3 -5 5 -21 17 -34 13 -14 31 -36 40 -50 49 -72 316 -92
272 -21 -29 47 -96 73 -190 74 -36 0 -59 6 -77 20 -27 21 -52 26 -62 11z"/>
<path d="M8932 9683 c-42 -4 -43 -5 -27 -23 16 -18 16 -21 -4 -49 -12 -16 -21
-34 -21 -41 0 -7 -7 -27 -15 -44 -13 -27 -32 -40 -115 -77 -74 -32 -100 -48
-100 -62 0 -58 103 -171 168 -183 27 -5 47 -1 89 20 29 14 58 26 64 26 6 0 40
-29 77 -65 l66 -65 -23 -21 c-21 -20 -22 -23 -6 -38 15 -15 17 -15 30 2 9 12
20 17 33 13 11 -4 36 1 57 11 36 17 36 19 30 60 -4 30 -2 49 10 67 16 24 15
25 -9 41 -21 14 -26 25 -26 61 0 37 -4 46 -24 55 -19 9 -22 16 -17 42 9 44 34
41 42 -4 3 -20 19 -59 36 -85 17 -27 34 -60 38 -72 7 -24 92 -72 126 -72 9 0
22 -7 30 -16 11 -14 9 -15 -24 -9 -29 6 -37 4 -37 -8 0 -8 11 -22 25 -31 31
-20 34 -42 3 -25 -20 11 -21 10 -15 -34 8 -59 -9 -76 -58 -58 -21 7 -53 9 -84
5 -34 -4 -56 -3 -66 6 -10 8 -30 10 -63 5 -44 -6 -52 -4 -78 19 -25 22 -26 25
-10 26 18 0 18 1 3 18 -10 10 -17 26 -17 36 0 50 -34 67 -85 44 -30 -14 -31
-18 -5 -68 34 -67 25 -81 -60 -95 -34 -6 -53 -17 -80 -46 -19 -21 -53 -45 -74
-54 -22 -9 -48 -27 -58 -40 -22 -29 -81 -43 -103 -25 -16 14 -35 5 -35 -16 0
-11 -12 -14 -51 -12 -67 4 -74 -15 -17 -42 69 -32 129 -135 114 -195 -8 -33
-34 -33 -173 0 -62 15 -119 23 -135 20 -15 -4 -28 -7 -28 -8 0 -1 7 -27 15
-57 8 -30 15 -83 15 -118 0 -47 6 -75 25 -111 24 -48 40 -61 75 -61 11 0 34
-13 52 -29 l33 -28 81 12 c85 12 96 16 132 48 19 18 21 27 16 69 -6 42 -3 52
15 72 12 13 40 31 62 41 36 16 39 21 39 57 0 43 9 46 83 26 39 -10 49 -9 101
15 88 40 102 37 168 -37 35 -39 87 -82 130 -108 58 -34 79 -54 105 -97 22 -37
34 -49 38 -39 3 8 1 27 -5 42 -14 37 -13 38 10 31 38 -12 20 11 -45 59 -35 26
-77 61 -92 78 -15 18 -43 46 -60 63 -21 20 -33 41 -33 59 0 52 27 42 114 -40
45 -44 101 -95 124 -115 28 -24 42 -44 42 -60 0 -14 21 -59 48 -101 26 -42 55
-91 65 -108 21 -39 41 -35 45 9 3 25 -3 40 -23 61 -29 31 -30 57 -2 74 15 9
22 6 41 -17 12 -15 30 -50 40 -76 33 -94 69 -138 139 -171 35 -16 75 -30 89
-30 21 0 27 -8 46 -69 13 -39 26 -93 29 -122 l6 -52 -29 6 c-16 3 -50 10 -75
15 -48 9 -72 23 -155 92 -28 24 -57 39 -69 38 -17 -3 -20 -10 -18 -50 1 -40
-2 -48 -17 -48 -10 0 -31 11 -47 24 -16 14 -41 28 -54 31 -14 3 -33 19 -43 35
-13 23 -32 34 -81 49 -35 11 -86 31 -114 45 -47 25 -50 28 -44 57 3 16 1 40
-5 52 -7 12 -16 34 -22 50 l-10 27 -157 0 c-204 -1 -291 -12 -370 -50 l-64
-29 -80 25 c-45 14 -83 24 -85 22 -2 -2 -9 -21 -16 -43 -9 -28 -23 -44 -49
-58 -58 -31 -72 -65 -64 -155 8 -88 4 -95 -83 -142 -51 -27 -70 -56 -129 -200
-17 -41 -42 -102 -57 -135 -14 -33 -26 -72 -26 -86 0 -37 19 -90 43 -117 26
-28 27 -110 2 -168 -11 -25 -18 -69 -19 -126 l-2 -87 50 -27 c40 -22 53 -25
67 -15 10 6 35 11 55 11 31 0 35 -3 29 -17 -28 -66 -29 -72 -17 -97 6 -15 22
-30 35 -35 16 -6 26 -20 31 -41 4 -22 27 -53 74 -97 92 -88 100 -90 190 -57
66 24 82 26 154 20 l80 -7 116 52 c191 85 241 77 250 -37 l5 -55 72 6 c120 12
131 -22 58 -179 -20 -44 -50 -100 -65 -123 -33 -49 -34 -77 -12 -194 20 -103
13 -314 -12 -381 -9 -24 -21 -74 -26 -113 -12 -79 -19 -96 -95 -217 -98 -155
-106 -231 -41 -372 39 -85 42 -98 47 -203 5 -98 9 -115 31 -145 21 -28 24 -44
24 -105 -1 -105 11 -102 177 43 82 72 132 127 217 241 70 94 118 169 132 206
13 33 42 81 67 110 l45 50 -6 84 c-9 104 4 137 103 259 81 100 114 183 126
314 12 128 53 267 101 340 66 101 177 224 262 289 108 83 163 146 275 314 25
38 38 107 20 107 -5 0 -50 -9 -102 -20 -132 -28 -139 -27 -147 15 -3 19 -4 41
-1 48 2 7 37 23 76 35 106 34 213 86 238 115 12 14 40 31 62 37 52 14 65 38
58 109 -6 56 -47 191 -74 244 -13 26 -15 27 -41 13 -15 -8 -44 -17 -64 -21
-33 -6 -38 -4 -52 23 -15 30 -15 31 14 61 27 26 34 29 62 20 18 -5 36 -9 40
-9 11 0 -21 97 -73 219 -28 64 -68 177 -89 252 -59 202 -176 539 -229 660 -58
129 -173 293 -340 481 -158 178 -162 181 -289 172 -100 -7 -114 -5 -195 30
-37 16 -38 16 -28 -3 33 -60 -8 -53 -61 11 -24 28 -69 77 -102 107 -32 31 -86
90 -119 131 -103 128 -203 216 -235 208 -4 -1 -27 -3 -50 -5z"/>
<path d="M9190 9675 c7 -8 28 -15 49 -15 34 1 35 2 17 15 -11 8 -33 15 -49 15
-25 0 -28 -2 -17 -15z"/>
<path d="M4357 9673 c-4 -3 -7 -16 -7 -27 1 -21 1 -21 15 -2 8 11 15 23 15 28
0 10 -14 11 -23 1z"/>
<path d="M9577 9354 c-10 -20 -16 -38 -14 -40 8 -8 187 -52 187 -45 0 15 -107
110 -130 116 -22 5 -28 1 -43 -31z"/>
<path d="M5530 9310 c0 -5 5 -10 10 -10 6 0 10 5 10 10 0 6 -4 10 -10 10 -5 0
-10 -4 -10 -10z"/>
<path d="M8282 9265 c-12 -9 -22 -25 -22 -36 0 -20 100 -129 118 -129 15 0 42
-29 42 -45 0 -8 -8 -16 -19 -20 -16 -5 -17 -10 -9 -52 8 -34 7 -52 -1 -66 -7
-10 -11 -20 -9 -22 2 -2 60 -5 129 -7 111 -3 129 -1 147 15 35 32 34 56 -1 71
-35 14 -142 94 -196 144 -18 18 -37 32 -41 32 -5 0 -4 15 1 32 13 47 13 48
-27 48 -27 0 -37 5 -41 20 -3 11 -9 20 -13 20 -5 0 -14 2 -22 5 -7 3 -23 -2
-36 -10z"/>
<path d="M9560 9240 c0 -5 5 -10 11 -10 5 0 7 5 4 10 -3 6 -8 10 -11 10 -2 0
-4 -4 -4 -10z"/>
<path d="M8180 9132 c-19 -9 -37 -17 -39 -19 -2 -1 3 -13 12 -26 10 -15 12
-29 6 -38 -27 -43 16 -65 99 -49 66 12 70 15 54 40 -6 11 -9 32 -6 48 11 55
-55 78 -126 44z"/>
<path d="M4623 9113 c-7 -2 -13 -9 -13 -14 0 -14 24 -11 46 6 19 14 19 14 -1
14 -11 0 -26 -3 -32 -6z"/>
<path d="M4777 9113 c-12 -11 -8 -23 7 -23 8 0 16 7 20 15 5 15 -14 21 -27 8z"/>
<path d="M8715 8990 c-3 -5 1 -10 9 -10 9 0 16 5 16 10 0 6 -4 10 -9 10 -6 0
-13 -4 -16 -10z"/>
<path d="M9056 8443 c-9 -22 10 -41 25 -26 13 13 5 43 -10 43 -5 0 -12 -8 -15
-17z"/>
<path d="M3386 8376 c9 -24 34 -28 34 -6 0 13 -7 20 -20 20 -13 0 -17 -5 -14
-14z"/>
<path d="M9073 8373 c-18 -6 -16 -32 5 -71 16 -28 20 -31 35 -19 16 11 17 17
5 51 -13 40 -23 48 -45 39z"/>
<path d="M8800 8310 c0 -5 5 -10 10 -10 6 0 10 5 10 10 0 6 -4 10 -10 10 -5 0
-10 -4 -10 -10z"/>
<path d="M9290 8202 c0 -8 71 -52 84 -52 3 0 6 14 6 30 0 29 -2 30 -45 30 -25
0 -45 -4 -45 -8z"/>
<path d="M9895 7920 c3 -5 8 -10 11 -10 2 0 4 5 4 10 0 6 -5 10 -11 10 -5 0
-7 -4 -4 -10z"/>
<path d="M4545 7549 c-9 -14 -7 -16 43 -24 47 -8 56 5 17 23 -32 15 -52 15
-60 1z"/>
<path d="M4510 7441 c0 -45 3 -51 34 -70 53 -33 87 -36 136 -11 l42 22 -36 24
c-30 20 -34 28 -26 43 12 23 5 30 -21 24 -21 -6 -22 -23 -4 -65 5 -13 3 -18
-8 -18 -23 0 -40 28 -39 65 1 34 1 35 -38 35 l-40 0 0 -49z"/>
<path d="M4260 7364 l-35 -15 25 -21 c21 -17 33 -19 100 -13 70 6 79 5 139
-24 75 -35 154 -54 208 -49 l38 4 -68 32 c-38 18 -82 41 -98 52 -60 44 -242
63 -309 34z"/>
<path d="M4844 7205 c24 -36 20 -40 -31 -37 -33 3 -45 1 -38 -6 13 -14 160
-17 260 -6 79 9 80 9 55 26 -36 25 -135 48 -203 48 l-59 0 16 -25z"/>
<path d="M4545 7160 c-7 -11 42 -26 53 -16 7 8 -17 26 -35 26 -6 0 -15 -4 -18
-10z"/>
<path d="M10304 5742 c-6 -4 -30 -35 -53 -70 -27 -39 -62 -75 -95 -98 -65 -43
-76 -65 -76 -154 0 -46 -7 -87 -20 -120 -25 -63 -25 -101 -2 -130 14 -17 22
-20 42 -12 59 23 86 70 145 252 31 96 63 185 71 197 15 24 20 128 6 137 -4 2
-13 2 -18 -2z"/>
<path d="M4485 2560 c-109 -35 -202 -125 -246 -237 -19 -47 -23 -78 -23 -168
-1 -101 1 -115 28 -172 35 -78 123 -164 201 -199 123 -54 269 -55 378 -4 233
110 310 442 150 645 -40 51 -134 111 -210 135 -84 26 -197 26 -278 0z"/>
<path d="M6853 3 c9 -2 25 -2 35 0 9 3 1 5 -18 5 -19 0 -27 -2 -17 -5z"/>
<path d="M7103 3 c9 -2 25 -2 35 0 9 3 1 5 -18 5 -19 0 -27 -2 -17 -5z"/>
</g>
</svg>
